<svg xmlns="http://www.w3.org/2000/svg" xmlns:xlink="http://www.w3.org/1999/xlink" width="500" zoomAndPan="magnify" viewBox="0 0 375 374.999991" height="500" preserveAspectRatio="xMidYMid meet" version="1.0"><defs><clipPath id="b18318a498"><path d="M 37.5 0 L 337.5 0 C 347.445312 0 356.984375 3.949219 364.015625 10.984375 C 371.050781 18.015625 375 27.554688 375 37.5 L 375 337.5 C 375 347.445312 371.050781 356.984375 364.015625 364.015625 C 356.984375 371.050781 347.445312 375 337.5 375 L 37.5 375 C 27.554688 375 18.015625 371.050781 10.984375 364.015625 C 3.949219 356.984375 0 347.445312 0 337.5 L 0 37.5 C 0 27.554688 3.949219 18.015625 10.984375 10.984375 C 18.015625 3.949219 27.554688 0 37.5 0 Z M 37.5 0 " clip-rule="nonzero"/></clipPath><clipPath id="7a3169ccf4"><path d="M 0 0 L 375 0 L 375 375 L 0 375 Z M 0 0 " clip-rule="nonzero"/></clipPath><clipPath id="6413b03516"><path d="M 37.5 0 L 337.5 0 C 347.445312 0 356.984375 3.949219 364.015625 10.984375 C 371.050781 18.015625 375 27.554688 375 37.5 L 375 337.5 C 375 347.445312 371.050781 356.984375 364.015625 364.015625 C 356.984375 371.050781 347.445312 375 337.5 375 L 37.5 375 C 27.554688 375 18.015625 371.050781 10.984375 364.015625 C 3.949219 356.984375 0 347.445312 0 337.5 L 0 37.5 C 0 27.554688 3.949219 18.015625 10.984375 10.984375 C 18.015625 3.949219 27.554688 0 37.5 0 Z M 37.5 0 " clip-rule="nonzero"/></clipPath><clipPath id="203de2ac19"><rect x="0" width="375" y="0" height="375"/></clipPath><clipPath id="7aa0d57a37"><path d="M 18.75 18.75 L 356.25 18.75 L 356.25 356.25 L 18.75 356.25 Z M 18.75 18.75 " clip-rule="nonzero"/></clipPath></defs><g clip-path="url(#b18318a498)"><g transform="matrix(1, 0, 0, 1, 0, 0)"><g clip-path="url(#203de2ac19)"><g clip-path="url(#7a3169ccf4)"><g clip-path="url(#6413b03516)"><rect x="-82.5" width="540" fill="#ffffff" height="539.999987" y="-82.499998" fill-opacity="1"/></g></g></g></g></g><g clip-path="url(#7aa0d57a37)"><path fill="#669933" d="M 356.453125 187.601562 C 356.453125 190.367188 356.386719 193.128906 356.25 195.886719 C 356.113281 198.648438 355.910156 201.402344 355.640625 204.152344 C 355.371094 206.902344 355.03125 209.644531 354.625 212.378906 C 354.222656 215.109375 353.75 217.832031 353.210938 220.542969 C 352.671875 223.253906 352.066406 225.949219 351.394531 228.628906 C 350.722656 231.308594 349.984375 233.972656 349.183594 236.617188 C 348.382812 239.261719 347.515625 241.882812 346.582031 244.488281 C 345.652344 247.089844 344.660156 249.664062 343.601562 252.21875 C 342.542969 254.773438 341.421875 257.296875 340.242188 259.796875 C 339.0625 262.292969 337.820312 264.761719 336.515625 267.199219 C 335.214844 269.636719 333.851562 272.039062 332.429688 274.410156 C 331.011719 276.78125 329.53125 279.113281 327.996094 281.410156 C 326.460938 283.707031 324.871094 285.96875 323.226562 288.1875 C 321.578125 290.40625 319.878906 292.585938 318.125 294.71875 C 316.375 296.855469 314.570312 298.949219 312.714844 300.996094 C 310.855469 303.042969 308.953125 305.042969 307 307 C 305.042969 308.953125 303.042969 310.855469 300.996094 312.714844 C 298.949219 314.570312 296.855469 316.375 294.71875 318.125 C 292.585938 319.878906 290.40625 321.578125 288.1875 323.226562 C 285.96875 324.871094 283.707031 326.460938 281.410156 327.996094 C 279.113281 329.53125 276.78125 331.011719 274.410156 332.429688 C 272.039062 333.851562 269.636719 335.214844 267.199219 336.515625 C 264.761719 337.820312 262.292969 339.0625 259.796875 340.242188 C 257.296875 341.421875 254.773438 342.542969 252.21875 343.601562 C 249.664062 344.660156 247.089844 345.652344 244.488281 346.582031 C 241.882812 347.515625 239.261719 348.382812 236.617188 349.183594 C 233.972656 349.984375 231.308594 350.722656 228.628906 351.394531 C 225.949219 352.066406 223.253906 352.671875 220.542969 353.210938 C 217.832031 353.75 215.109375 354.222656 212.378906 354.625 C 209.644531 355.03125 206.902344 355.371094 204.152344 355.640625 C 201.402344 355.910156 198.648438 356.113281 195.886719 356.25 C 193.128906 356.386719 190.367188 356.453125 187.601562 356.453125 C 184.839844 356.453125 182.078125 356.386719 179.316406 356.25 C 176.558594 356.113281 173.800781 355.910156 171.050781 355.640625 C 168.300781 355.371094 165.558594 355.03125 162.828125 354.625 C 160.09375 354.222656 157.371094 353.75 154.660156 353.210938 C 151.949219 352.671875 149.253906 352.066406 146.574219 351.394531 C 143.894531 350.722656 141.230469 349.984375 138.585938 349.183594 C 135.941406 348.382812 133.320312 347.515625 130.71875 346.582031 C 128.117188 345.652344 125.539062 344.660156 122.984375 343.601562 C 120.433594 342.542969 117.90625 341.421875 115.410156 340.242188 C 112.910156 339.0625 110.441406 337.820312 108.003906 336.515625 C 105.570312 335.214844 103.164062 333.851562 100.792969 332.429688 C 98.425781 331.011719 96.089844 329.53125 93.792969 327.996094 C 91.496094 326.460938 89.238281 324.871094 87.015625 323.226562 C 84.796875 321.578125 82.621094 319.878906 80.484375 318.125 C 78.347656 316.375 76.253906 314.570312 74.207031 312.714844 C 72.160156 310.855469 70.160156 308.953125 68.207031 307 C 66.25 305.042969 64.347656 303.042969 62.492188 300.996094 C 60.636719 298.949219 58.832031 296.855469 57.078125 294.71875 C 55.324219 292.585938 53.625 290.40625 51.980469 288.1875 C 50.332031 285.96875 48.742188 283.707031 47.207031 281.410156 C 45.671875 279.113281 44.195312 276.78125 42.773438 274.410156 C 41.351562 272.039062 39.992188 269.636719 38.6875 267.199219 C 37.386719 264.761719 36.144531 262.292969 34.960938 259.796875 C 33.78125 257.296875 32.660156 254.773438 31.601562 252.21875 C 30.546875 249.664062 29.550781 247.089844 28.621094 244.488281 C 27.6875 241.882812 26.824219 239.261719 26.019531 236.617188 C 25.21875 233.972656 24.480469 231.308594 23.808594 228.628906 C 23.140625 225.949219 22.535156 223.253906 21.996094 220.542969 C 21.457031 217.832031 20.984375 215.109375 20.578125 212.378906 C 20.171875 209.644531 19.832031 206.902344 19.5625 204.152344 C 19.292969 201.402344 19.089844 198.648438 18.953125 195.886719 C 18.816406 193.128906 18.75 190.367188 18.75 187.601562 C 18.75 184.839844 18.816406 182.078125 18.953125 179.316406 C 19.089844 176.558594 19.292969 173.800781 19.5625 171.050781 C 19.832031 168.300781 20.171875 165.558594 20.578125 162.828125 C 20.984375 160.09375 21.457031 157.371094 21.996094 154.660156 C 22.535156 151.949219 23.140625 149.253906 23.808594 146.574219 C 24.480469 143.894531 25.21875 141.230469 26.019531 138.585938 C 26.824219 135.941406 27.6875 133.320312 28.621094 130.71875 C 29.550781 128.117188 30.546875 125.539062 31.601562 122.984375 C 32.660156 120.433594 33.78125 117.90625 34.960938 115.410156 C 36.144531 112.910156 37.386719 110.441406 38.6875 108.003906 C 39.992188 105.570312 41.351562 103.164062 42.773438 100.792969 C 44.195312 98.425781 45.671875 96.089844 47.207031 93.792969 C 48.742188 91.496094 50.332031 89.238281 51.980469 87.015625 C 53.625 84.796875 55.324219 82.621094 57.078125 80.484375 C 58.832031 78.347656 60.636719 76.253906 62.492188 74.207031 C 64.347656 72.160156 66.25 70.160156 68.207031 68.207031 C 70.160156 66.25 72.160156 64.347656 74.207031 62.492188 C 76.253906 60.636719 78.347656 58.832031 80.484375 57.078125 C 82.621094 55.324219 84.796875 53.625 87.015625 51.980469 C 89.238281 50.332031 91.496094 48.742188 93.792969 47.207031 C 96.089844 45.671875 98.425781 44.195312 100.792969 42.773438 C 103.164062 41.351562 105.570312 39.992188 108.003906 38.6875 C 110.441406 37.386719 112.910156 36.144531 115.410156 34.960938 C 117.90625 33.78125 120.433594 32.660156 122.984375 31.601562 C 125.539062 30.546875 128.117188 29.550781 130.71875 28.621094 C 133.320312 27.6875 135.941406 26.824219 138.585938 26.019531 C 141.230469 25.21875 143.894531 24.480469 146.574219 23.808594 C 149.253906 23.140625 151.949219 22.535156 154.660156 21.996094 C 157.371094 21.457031 160.09375 20.984375 162.828125 20.578125 C 165.558594 20.171875 168.300781 19.832031 171.050781 19.5625 C 173.800781 19.292969 176.558594 19.089844 179.316406 18.953125 C 182.078125 18.816406 184.839844 18.75 187.601562 18.75 C 190.367188 18.75 193.128906 18.816406 195.886719 18.953125 C 198.648438 19.089844 201.402344 19.292969 204.152344 19.5625 C 206.902344 19.832031 209.644531 20.171875 212.378906 20.578125 C 215.109375 20.984375 217.832031 21.457031 220.542969 21.996094 C 223.253906 22.535156 225.949219 23.140625 228.628906 23.808594 C 231.308594 24.480469 233.972656 25.21875 236.617188 26.019531 C 239.261719 26.824219 241.882812 27.6875 244.488281 28.621094 C 247.089844 29.550781 249.664062 30.546875 252.21875 31.601562 C 254.773438 32.660156 257.296875 33.78125 259.796875 34.960938 C 262.292969 36.144531 264.761719 37.386719 267.199219 38.6875 C 269.636719 39.992188 272.039062 41.351562 274.410156 42.773438 C 276.78125 44.195312 279.113281 45.671875 281.410156 47.207031 C 283.707031 48.742188 285.96875 50.332031 288.1875 51.980469 C 290.40625 53.625 292.585938 55.324219 294.71875 57.078125 C 296.855469 58.832031 298.949219 60.636719 300.996094 62.492188 C 303.042969 64.347656 305.042969 66.25 307 68.207031 C 308.953125 70.160156 310.855469 72.160156 312.714844 74.207031 C 314.570312 76.253906 316.375 78.347656 318.125 80.484375 C 319.878906 82.621094 321.578125 84.796875 323.226562 87.015625 C 324.871094 89.238281 326.460938 91.496094 327.996094 93.792969 C 329.53125 96.089844 331.011719 98.425781 332.429688 100.792969 C 333.851562 103.164062 335.214844 105.570312 336.515625 108.003906 C 337.820312 110.441406 339.0625 112.910156 340.242188 115.410156 C 341.421875 117.90625 342.542969 120.433594 343.601562 122.984375 C 344.660156 125.539062 345.652344 128.117188 346.582031 130.71875 C 347.515625 133.320312 348.382812 135.941406 349.183594 138.585938 C 349.984375 141.230469 350.722656 143.894531 351.394531 146.574219 C 352.066406 149.253906 352.671875 151.949219 353.210938 154.660156 C 353.75 157.371094 354.222656 160.09375 354.625 162.828125 C 355.03125 165.558594 355.371094 168.300781 355.640625 171.050781 C 355.910156 173.800781 356.113281 176.558594 356.25 179.316406 C 356.386719 182.078125 356.453125 184.839844 356.453125 187.601562 Z M 356.453125 187.601562 " fill-opacity="1" fill-rule="nonzero"/></g><path fill="#ffffff" d="M 151.914062 221.761719 C 147.683594 217.578125 142.636719 213.703125 136.621094 210.390625 C 98.691406 189.386719 88.390625 186.785156 74.421875 154.054688 C 60.503906 121.324219 45.3125 123.671875 45.3125 123.671875 C 45.3125 123.671875 96.191406 105.164062 129.585938 125.25 C 144.164062 134.070312 153.75 147.988281 159.613281 162.214844 C 157.269531 172.714844 155.484375 183.320312 154.207031 193.871094 C 140.496094 177.304688 117.195312 151.761719 98.585938 145.03125 C 98.585938 145.03125 134.171875 170.472656 153.648438 198.714844 C 152.832031 206.464844 152.273438 214.164062 151.914062 221.761719 Z M 151.914062 221.761719 " fill-opacity="1" fill-rule="evenodd"/><path fill="#ffffff" d="M 169.09375 355.945312 C 169.09375 355.945312 156.503906 289.003906 209.371094 246.128906 C 262.1875 203.253906 277.328125 196.421875 289.871094 142.074219 C 302.414062 87.675781 326.476562 87.117188 326.476562 87.117188 C 326.476562 87.117188 242.816406 72.484375 196.777344 112.761719 C 150.792969 153.035156 152.324219 227.828125 163.84375 251.378906 C 163.84375 251.378906 209.371094 158.289062 250.15625 134.734375 C 250.15625 134.734375 183.21875 203.253906 170.625 259.179688 C 158.082031 315.160156 164.609375 335.550781 169.09375 355.945312 Z M 169.09375 355.945312 " fill-opacity="1" fill-rule="evenodd"/><path fill="#ffffff" d="M 154.921875 288.496094 C 154.921875 288.496094 153.445312 269.480469 136.058594 261.78125 C 118.675781 254.03125 114.085938 253.316406 106.746094 239.550781 C 99.402344 225.789062 92.878906 227.417969 92.878906 227.417969 C 92.878906 227.417969 114.390625 217.375 129.738281 224.871094 C 145.082031 232.363281 150.078125 252.65625 148.703125 259.84375 C 148.703125 259.84375 129.636719 238.074219 116.941406 234.710938 C 116.941406 234.710938 139.984375 248.320312 147.429688 262.496094 C 154.921875 276.667969 154.617188 282.632812 154.921875 288.496094 Z M 154.921875 288.496094 " fill-opacity="1" fill-rule="evenodd"/></svg>